<svg xmlns="http://www.w3.org/2000/svg" width="1536" height="700" viewBox="0 150 1536 700" version="1.1"><path d="M 781.628 422.079 C 758.476 427.767, 743.205 444.863, 737.803 471.143 C 735.970 480.061, 735.662 485.113, 735.587 507.500 C 735.446 549.462, 739.822 566.447, 754.572 581.197 C 766.285 592.910, 782.060 598.931, 801.162 598.978 C 838.936 599.073, 861.027 578.819, 867.126 538.500 C 868.927 526.596, 868.956 487.387, 867.173 476.095 C 862.549 446.816, 844.716 426.707, 818.792 421.537 C 808.136 419.412, 791.496 419.655, 781.628 422.079 M 1034 421.594 C 1025.267 423.465, 1012.517 429.879, 1006.997 435.177 C 995.962 445.771, 989.031 461.679, 987.053 480.953 C 984.709 503.791, 986.174 540.539, 990.028 555.608 C 996.871 582.366, 1015.596 597.171, 1044.520 598.694 C 1074.425 600.269, 1096.925 587.111, 1105.977 562.756 C 1107.697 558.127, 1110.945 545.804, 1110.985 543.750 C 1110.993 543.337, 1103.207 543, 1093.683 543 L 1076.365 543 1074.676 548.359 C 1070.847 560.506, 1063.715 566.044, 1051 566.744 C 1044.282 567.114, 1042.927 566.863, 1038 564.329 C 1031.281 560.873, 1026.783 554.061, 1025.047 544.712 C 1023.272 535.160, 1022.499 491.333, 1023.896 479.507 C 1025.075 469.527, 1028.113 460.744, 1031.797 456.671 C 1036.537 451.429, 1048.985 448.573, 1056.604 450.979 C 1066.842 454.212, 1073.096 461.711, 1075.008 473.047 L 1076.181 480 1093.090 480 L 1110 480 1110 474.160 C 1110 466.405, 1106.817 454.316, 1102.775 446.716 C 1096.150 434.264, 1082.790 424.715, 1067.500 421.504 C 1058.862 419.691, 1042.679 419.734, 1034 421.594 M 604 509.500 L 604 596 639.790 596 C 668.506 596, 676.758 595.700, 681.540 594.482 C 705.781 588.309, 719.052 569.427, 717.726 543 C 717.132 531.175, 714.514 523.900, 708.405 517.106 C 704.218 512.448, 693.695 506, 690.281 506 C 687.977 506, 689.763 504.254, 694.960 501.425 C 707.599 494.546, 713.749 478.432, 711.159 458.980 C 709.703 448.042, 707.317 442.603, 701.136 436.129 C 689.824 424.281, 683.653 423, 637.912 423 L 604 423 604 509.500 M 889 509.500 L 889 596 935.500 596 L 982 596 982 581.232 L 982 566.463 954.750 566.503 C 939.763 566.525, 926.712 566.368, 925.750 566.155 C 924.103 565.790, 924 561.553, 924 494.383 L 924 423 906.500 423 L 889 423 889 509.500 M 1160.761 435.230 C 1158.772 441.979, 1154.827 455.825, 1151.995 466 C 1149.162 476.175, 1145.332 489.675, 1143.482 496 C 1139.663 509.065, 1134.772 526.343, 1126.502 556 C 1123.357 567.275, 1119.543 580.775, 1118.026 586 L 1115.269 595.500 1132.851 595.774 C 1142.521 595.925, 1150.909 595.865, 1151.491 595.642 C 1152.074 595.418, 1154.339 587.533, 1156.525 578.119 L 1160.500 561.003 1184.057 561.001 L 1207.614 561 1212.028 578.500 L 1216.443 596 1235.584 596 L 1254.725 596 1251.811 586.250 C 1250.208 580.888, 1246.938 569.525, 1244.543 561 C 1242.149 552.475, 1232.988 520.300, 1224.186 489.500 C 1215.385 458.700, 1207.565 431.250, 1206.809 428.500 L 1205.434 423.500 1184.906 423.230 L 1164.377 422.961 1160.761 435.230 M 1243 438 L 1243 453 1263 453 L 1283 453 1283 524.500 L 1283 596 1300 596 L 1317 596 1317 524.500 L 1317 453 1338 453 L 1359 453 1359 438 L 1359 423 1301 423 L 1243 423 1243 438 M 794.500 450.874 C 786.475 452.991, 780.558 458.398, 776.304 467.500 L 773.500 473.500 773.500 507.500 C 773.500 532.933, 773.843 542.836, 774.862 546.802 C 776.567 553.436, 782.589 561.234, 788.262 564.151 C 793.449 566.819, 805.457 567.765, 812 566.020 C 818.297 564.342, 825.919 556.404, 828.344 549 C 831.860 538.262, 832.756 496.175, 829.875 477.076 C 828.022 464.792, 822.171 456.059, 813.315 452.358 C 809.131 450.610, 798.638 449.782, 794.500 450.874 M 640 472.621 L 640 493.241 652.250 492.784 C 667.307 492.222, 670.959 490.781, 674.179 484.130 C 677.428 477.418, 677.332 466.082, 673.974 460 C 670.214 453.191, 666.989 452.003, 652.250 452.002 L 640 452 640 472.621 M 1184.068 467.513 C 1183.955 469.200, 1176.482 500.458, 1172.117 517.500 C 1169.863 526.300, 1168.015 533.837, 1168.010 534.250 C 1168.004 534.663, 1175.425 535, 1184.500 535 C 1196.310 535, 1201 534.672, 1201 533.845 C 1201 532.163, 1185.967 470.867, 1184.974 468.500 C 1184.513 467.400, 1184.105 466.956, 1184.068 467.513 M 640 544.500 L 640 570 651.374 570 C 664.057 570, 669.740 568.581, 674.209 564.300 C 678.015 560.654, 680.404 552.928, 680.331 544.500 C 680.220 531.474, 676.641 524.490, 668.231 520.885 C 664.744 519.390, 661.369 519, 651.917 519 L 640 519 640 544.500" stroke="none" fill="#fbf9f5" fill-rule="evenodd"/><path d="M 290.013 282.750 C 288.077 284.513, 286.104 288.078, 284.514 292.683 C 280.076 305.535, 278.775 315.740, 278.288 341.500 L 277.834 365.500 273 375.500 C 267.268 387.356, 264.739 394.654, 262.455 405.925 C 260.856 413.816, 260.814 421.390, 262.256 441.986 C 262.488 445.307, 262.118 445.734, 254.441 450.986 C 226.404 470.167, 206.827 493.274, 195.121 520.997 C 186.192 542.146, 183.399 558.049, 184.329 582.434 C 185.458 612.024, 192.009 633.980, 206.824 657.827 C 220.419 679.711, 238.757 697.066, 263.131 711.116 C 301.244 733.086, 341.291 740.859, 391 735.935 C 442.008 730.883, 489.556 703.691, 517.445 663.624 C 536.610 636.091, 548.194 595.269, 541.015 580.566 C 536.136 570.573, 519.173 566.140, 506.338 571.503 C 499.122 574.518, 496.404 578.344, 490.930 593.190 C 483.123 614.363, 473.109 630.862, 460.450 643.407 C 445.445 658.278, 429.165 667.720, 410.426 672.421 C 386.527 678.417, 364.836 678.445, 341.441 672.510 C 316.517 666.188, 292.383 648.422, 284.498 630.591 C 279.949 620.305, 281.616 618.817, 288.610 626.923 C 305.040 645.967, 329.056 659.568, 353.153 663.476 C 363.934 665.225, 385.829 665.467, 397.769 663.970 C 413.335 662.018, 431.310 655.547, 443.331 647.568 L 448.777 643.954 447.862 639.881 C 447.359 637.641, 446.239 634.164, 445.373 632.154 C 440.177 620.087, 436.302 605.320, 433.918 588.500 C 432.188 576.292, 432.144 536.806, 433.850 526.474 L 435.175 518.448 444.817 515.150 C 469.872 506.578, 488.184 492.596, 497.450 474.962 C 499.501 471.061, 501.757 467.647, 502.465 467.375 C 504.089 466.752, 513.501 469.159, 526.905 473.626 C 540.048 478.006, 547.316 478.090, 547.805 473.866 C 548.024 471.975, 547.352 470.636, 545.420 469.116 C 543.941 467.952, 542.098 467, 541.326 467 C 539.469 467, 517.188 458.647, 512.040 456.020 C 508.005 453.962, 507.439 452.692, 508.610 448.326 C 509.124 446.412, 510.107 446.077, 516.847 445.517 C 546.870 443.024, 551 441.998, 551 437.030 C 551 432.216, 547.979 431.359, 536.187 432.826 C 530.859 433.489, 522.726 434.321, 518.113 434.675 L 509.725 435.318 510.458 430.431 C 512.926 413.972, 510.064 393.588, 502.945 376.924 L 498 365.349 498 346.135 C 498 319.293, 495.072 296.276, 490.407 286.446 C 487.624 280.582, 481.363 278.585, 473.899 281.183 C 464.874 284.324, 448.867 296.616, 439.250 307.789 C 433.530 314.435, 425.101 326.612, 423.754 330.175 C 423.174 331.708, 422.668 331.727, 417.810 330.395 C 410.147 328.295, 392.712 326.041, 384 326.025 C 375.710 326.010, 359.083 328.257, 354.464 330.016 C 351.936 330.978, 351.314 330.876, 350.237 329.322 C 349.543 328.320, 346.201 323.262, 342.811 318.082 C 339.421 312.902, 333.844 305.692, 330.419 302.061 C 319.423 290.405, 302.956 280, 295.505 280 C 294.145 280, 291.673 281.238, 290.013 282.750 M 355.059 396.265 C 350.732 398.455, 347.968 405.496, 347.850 414.631 C 347.728 424.061, 349.156 429.191, 352.674 431.958 C 358.612 436.629, 367.867 434.957, 370.463 428.743 C 372.677 423.444, 373.354 414.024, 371.993 407.466 C 369.871 397.244, 362.612 392.442, 355.059 396.265 M 456.426 396.365 C 451.806 398.455, 448.998 405.764, 449.006 415.685 C 449.013 426.270, 450.345 430.630, 454.311 433.048 C 458.353 435.513, 464.602 435.540, 468.586 433.111 C 470.997 431.640, 472.036 429.932, 473.336 425.299 C 474.251 422.037, 475 417.805, 475 415.894 C 475 410.242, 472.091 400.676, 469.611 398.175 C 466.768 395.309, 460.624 394.465, 456.426 396.365 M 784 419.973 C 773.590 422.216, 768.051 424.652, 760.176 430.449 C 746.255 440.697, 737.670 457.255, 735.001 479 C 733.386 492.159, 733.721 530.741, 735.548 541.999 C 739.178 564.370, 745.634 576.918, 758.863 587.311 C 770.441 596.407, 782.641 600.087, 801.173 600.074 C 821.262 600.060, 832.500 596.660, 844.412 586.996 C 863.326 571.650, 870.142 550.118, 870.211 505.500 C 870.268 468.491, 865.268 452.036, 849.085 435.969 C 839.850 426.801, 832.114 422.692, 818.986 419.984 C 807.259 417.564, 795.194 417.560, 784 419.973 M 1037.500 419.405 C 1008.170 424.330, 990.118 444.744, 985.959 477.688 C 984.602 488.436, 984.620 529.844, 985.986 541.802 C 989.548 572.975, 1004.175 591.604, 1030.500 598.493 C 1039.277 600.790, 1059.419 600.622, 1068.655 598.175 C 1082.720 594.448, 1096.171 584.437, 1102.887 572.697 C 1106.218 566.876, 1111.439 551.812, 1112.401 545.250 L 1113.024 541 1094.031 541 L 1075.038 541 1074.457 543.750 C 1073.523 548.174, 1068.813 557.827, 1066.554 559.949 C 1058.268 567.733, 1038.268 566.815, 1032.272 558.376 C 1026.218 549.855, 1024.948 540.818, 1024.966 506.392 C 1024.982 476.276, 1025.954 468.556, 1030.641 461.327 C 1034.710 455.053, 1038.913 452.769, 1047.397 452.225 C 1056.665 451.630, 1061.128 453.073, 1066.426 458.379 C 1070.432 462.391, 1073.981 470.337, 1074.014 475.365 C 1074.021 476.539, 1074.299 478.512, 1074.630 479.750 C 1075.227 481.977, 1075.415 482, 1093.148 482 C 1109.030 482, 1111.136 481.809, 1111.710 480.314 C 1112.709 477.711, 1110.445 462.249, 1108.004 455 C 1102.142 437.593, 1088.101 424.783, 1070.043 420.368 C 1061.645 418.315, 1046.636 417.870, 1037.500 419.405 M 781.628 422.079 C 758.476 427.767, 743.205 444.863, 737.803 471.143 C 735.970 480.061, 735.662 485.113, 735.587 507.500 C 735.446 549.462, 739.822 566.447, 754.572 581.197 C 766.285 592.910, 782.060 598.931, 801.162 598.978 C 838.936 599.073, 861.027 578.819, 867.126 538.500 C 868.927 526.596, 868.956 487.387, 867.173 476.095 C 862.549 446.816, 844.716 426.707, 818.792 421.537 C 808.136 419.412, 791.496 419.655, 781.628 422.079 M 1034 421.594 C 1025.267 423.465, 1012.517 429.879, 1006.997 435.177 C 995.962 445.771, 989.031 461.679, 987.053 480.953 C 984.709 503.791, 986.174 540.539, 990.028 555.608 C 996.871 582.366, 1015.596 597.171, 1044.520 598.694 C 1074.425 600.269, 1096.925 587.111, 1105.977 562.756 C 1107.697 558.127, 1110.945 545.804, 1110.985 543.750 C 1110.993 543.337, 1103.207 543, 1093.683 543 L 1076.365 543 1074.676 548.359 C 1070.847 560.506, 1063.715 566.044, 1051 566.744 C 1044.282 567.114, 1042.927 566.863, 1038 564.329 C 1031.281 560.873, 1026.783 554.061, 1025.047 544.712 C 1023.272 535.160, 1022.499 491.333, 1023.896 479.507 C 1025.075 469.527, 1028.113 460.744, 1031.797 456.671 C 1036.537 451.429, 1048.985 448.573, 1056.604 450.979 C 1066.842 454.212, 1073.096 461.711, 1075.008 473.047 L 1076.181 480 1093.090 480 L 1110 480 1110 474.160 C 1110 466.405, 1106.817 454.316, 1102.775 446.716 C 1096.150 434.264, 1082.790 424.715, 1067.500 421.504 C 1058.862 419.691, 1042.679 419.734, 1034 421.594 M 602.915 445.250 C 602.570 544.146, 602.513 595.645, 602.747 596.500 C 602.926 597.157, 616.661 597.317, 642.760 596.966 C 685.732 596.388, 685.492 596.418, 695.630 590.477 C 706.420 584.153, 713.005 575.983, 716.597 564.463 C 718.941 556.945, 719.172 554.830, 718.854 543.771 C 718.522 532.228, 718.294 531.035, 715.219 524.792 C 711.449 517.135, 704.385 510.179, 697.507 507.351 C 695.032 506.333, 693.006 505.174, 693.004 504.776 C 693.002 504.377, 694.252 503.404, 695.781 502.613 C 699.203 500.844, 707.262 492.349, 709.259 488.407 C 710.784 485.397, 712.454 478.566, 713.435 471.323 C 714.192 465.730, 712.334 452.968, 709.761 446.091 C 707.088 438.946, 698.293 429.939, 690.510 426.376 C 680.688 421.879, 672.495 421.073, 636.250 421.035 L 603 421 602.915 445.250 M 887.528 424.250 C 887.219 426.038, 887.086 465.525, 887.233 512 L 887.500 596.500 935.250 596.760 L 983 597.019 983 581.010 L 983 565 954 565 L 925 565 925 493 L 925 421 906.545 421 L 888.091 421 887.528 424.250 M 1163 421.463 C 1163 421.739, 1161.242 427.936, 1159.094 435.233 C 1156.945 442.530, 1150.429 465.375, 1144.613 486 C 1138.796 506.625, 1129.530 539.475, 1124.020 559 C 1118.510 578.525, 1114.002 595.063, 1114.001 595.750 C 1114 596.708, 1118.662 597, 1133.981 597 C 1153.894 597, 1153.964 596.992, 1154.439 594.750 C 1154.701 593.513, 1156.542 585.750, 1158.530 577.500 L 1162.144 562.500 1184.254 562.710 L 1206.363 562.921 1208.732 572.210 C 1210.035 577.320, 1212.028 584.987, 1213.160 589.250 L 1215.219 597 1235.629 597 L 1256.038 597 1255.376 594.250 C 1254.166 589.220, 1240.214 539.713, 1236.002 525.500 C 1233.719 517.800, 1230.735 507.278, 1229.369 502.118 C 1228.004 496.958, 1226.273 490.883, 1225.523 488.618 C 1224.114 484.365, 1220.974 473.348, 1214.516 450 C 1212.462 442.575, 1209.784 433.125, 1208.565 429 L 1206.348 421.500 1184.674 421.230 C 1172.753 421.082, 1163 421.187, 1163 421.463 M 1241.516 421.973 C 1240.802 423.129, 1240.974 450.770, 1241.708 452.680 C 1242.103 453.712, 1246.554 454, 1262.107 454 L 1282 454 1282 525.456 L 1282 596.913 1300.086 597.206 C 1310.033 597.368, 1318.358 597.312, 1318.586 597.083 C 1318.814 596.854, 1319 564.567, 1319 525.333 L 1319 454 1340 454 L 1361 454 1361 437.500 L 1361 421 1301.559 421 C 1264.092 421, 1241.896 421.360, 1241.516 421.973 M 604 509.500 L 604 596 639.790 596 C 668.506 596, 676.758 595.700, 681.540 594.482 C 705.781 588.309, 719.052 569.427, 717.726 543 C 717.132 531.175, 714.514 523.900, 708.405 517.106 C 704.218 512.448, 693.695 506, 690.281 506 C 687.977 506, 689.763 504.254, 694.960 501.425 C 707.599 494.546, 713.749 478.432, 711.159 458.980 C 709.703 448.042, 707.317 442.603, 701.136 436.129 C 689.824 424.281, 683.653 423, 637.912 423 L 604 423 604 509.500 M 889 509.500 L 889 596 935.500 596 L 982 596 982 581.232 L 982 566.463 954.750 566.503 C 939.763 566.525, 926.712 566.368, 925.750 566.155 C 924.103 565.790, 924 561.553, 924 494.383 L 924 423 906.500 423 L 889 423 889 509.500 M 1160.761 435.230 C 1158.772 441.979, 1154.827 455.825, 1151.995 466 C 1149.162 476.175, 1145.332 489.675, 1143.482 496 C 1139.663 509.065, 1134.772 526.343, 1126.502 556 C 1123.357 567.275, 1119.543 580.775, 1118.026 586 L 1115.269 595.500 1132.851 595.774 C 1142.521 595.925, 1150.909 595.865, 1151.491 595.642 C 1152.074 595.418, 1154.339 587.533, 1156.525 578.119 L 1160.500 561.003 1184.057 561.001 L 1207.614 561 1212.028 578.500 L 1216.443 596 1235.584 596 L 1254.725 596 1251.811 586.250 C 1250.208 580.888, 1246.938 569.525, 1244.543 561 C 1242.149 552.475, 1232.988 520.300, 1224.186 489.500 C 1215.385 458.700, 1207.565 431.250, 1206.809 428.500 L 1205.434 423.500 1184.906 423.230 L 1164.377 422.961 1160.761 435.230 M 1243 438 L 1243 453 1263 453 L 1283 453 1283 524.500 L 1283 596 1300 596 L 1317 596 1317 524.500 L 1317 453 1338 453 L 1359 453 1359 438 L 1359 423 1301 423 L 1243 423 1243 438 M 408.269 443.940 C 405.941 444.319, 403.766 444.900, 403.435 445.232 C 403.104 445.563, 403.710 447.816, 404.781 450.239 C 409.588 461.104, 426.660 460.637, 431.896 449.498 C 433.084 446.969, 433.792 444.473, 433.469 443.950 C 432.810 442.884, 414.793 442.877, 408.269 443.940 M 308.282 449.989 C 298.847 450.831, 291.528 452.659, 289.942 454.570 C 287.777 457.178, 289.295 460.236, 293.500 461.738 C 301.304 464.525, 331.158 461.338, 346.231 456.109 C 358.055 452.007, 357.595 451.299, 342.288 450.044 C 329.542 448.999, 319.551 448.983, 308.282 449.989 M 794.500 450.874 C 786.475 452.991, 780.558 458.398, 776.304 467.500 L 773.500 473.500 773.500 507.500 C 773.500 532.933, 773.843 542.836, 774.862 546.802 C 776.567 553.436, 782.589 561.234, 788.262 564.151 C 793.449 566.819, 805.457 567.765, 812 566.020 C 818.297 564.342, 825.919 556.404, 828.344 549 C 831.860 538.262, 832.756 496.175, 829.875 477.076 C 828.022 464.792, 822.171 456.059, 813.315 452.358 C 809.131 450.610, 798.638 449.782, 794.500 450.874 M 640 472.621 L 640 493.241 652.250 492.784 C 667.307 492.222, 670.959 490.781, 674.179 484.130 C 677.428 477.418, 677.332 466.082, 673.974 460 C 670.214 453.191, 666.989 452.003, 652.250 452.002 L 640 452 640 472.621 M 792.403 453.020 C 787.457 454.549, 780.528 461.346, 778.055 467.093 C 774.747 474.782, 773.674 488.975, 774.320 516.500 C 774.923 542.232, 775.830 548.123, 780.205 554.733 C 784.040 560.529, 789.430 563.739, 797.707 565.157 C 807.637 566.859, 814.568 564.772, 821.008 558.141 C 826.302 552.690, 827.628 548.994, 829.129 535.500 C 830.424 523.849, 829.687 482.114, 828.052 474.538 C 825.997 465.014, 821.407 458.309, 814.500 454.737 C 809.966 452.393, 797.553 451.428, 792.403 453.020 M 641 471.976 L 641 491.163 653.431 490.832 C 664.157 490.545, 666.248 490.214, 668.681 488.410 C 672.837 485.329, 674.396 481.390, 674.779 473 C 675.067 466.701, 674.751 464.779, 672.811 461 C 669.589 454.726, 666.788 453.633, 652.750 453.174 L 641 452.789 641 471.976 M 1184.068 467.513 C 1183.955 469.200, 1176.482 500.458, 1172.117 517.500 C 1169.863 526.300, 1168.015 533.837, 1168.010 534.250 C 1168.004 534.663, 1175.425 535, 1184.500 535 C 1196.310 535, 1201 534.672, 1201 533.845 C 1201 532.163, 1185.967 470.867, 1184.974 468.500 C 1184.513 467.400, 1184.105 466.956, 1184.068 467.513 M 346.500 471.105 C 344.850 471.618, 338.100 473.181, 331.500 474.578 C 317.724 477.494, 314.214 478.599, 311.347 480.920 C 306.593 484.769, 305.847 491.204, 310.028 492.297 C 313.001 493.074, 326.872 489.531, 334.634 486.012 C 342.866 482.279, 353.840 473.617, 353.967 470.750 C 354.011 469.760, 350.249 469.939, 346.500 471.105 M 1177.734 501.239 C 1174.012 516.233, 1170.697 529.513, 1170.367 530.750 L 1169.767 533 1184.862 533 L 1199.957 533 1199.012 530.750 C 1198.493 529.513, 1195.313 517.025, 1191.945 503 C 1188.578 488.975, 1185.525 476.708, 1185.161 475.739 C 1184.764 474.683, 1181.795 484.876, 1177.734 501.239 M 640 544.500 L 640 570 651.374 570 C 664.057 570, 669.740 568.581, 674.209 564.300 C 678.015 560.654, 680.404 552.928, 680.331 544.500 C 680.220 531.474, 676.641 524.490, 668.231 520.885 C 664.744 519.390, 661.369 519, 651.917 519 L 640 519 640 544.500 M 640.999 544.250 L 641 568 652.788 568 C 667.328 568, 672.008 566.185, 676 559 C 678.183 555.071, 678.497 553.295, 678.474 545 C 678.444 533.711, 677.063 529.140, 672.460 525.099 C 668.476 521.601, 666.221 521.129, 651.749 520.768 L 640.998 520.500 640.999 544.250" stroke="none" fill="#7760c6" fill-rule="evenodd"/><script xmlns=""/></svg>